# xmcd
#
# Track frame offsets: 
#        150
#        23774
#        40942
#        55628
#        73341
#        88012
#        106486
#        126876
#        142723
#        167916
#        180888
#        200244
#        217105
#        233940
#        250141
#        269398
#        284923
#
# Disc length: 4131 seconds
#
# Revision: 0
# Processed by: cddbd v1.5.2PL0 Copyright (c) Steve Scherf et al.
# Submitted via: ExactAudioCopyFreeDBPlugin 1.0
#
DISCID=04102111
DTITLE=Various Artist - Most Wanted Vol.3
DYEAR=2006
DGENRE=Hip-Hop
TTITLE0=Eric B. and Rakim - Microphone Fiend
TTITLE1=EPMD - Crossover
TTITLE2=Nice and Smooth - Hip Hop Junkies
TTITLE3=The Dove Shack - Summertime In The LBC
TTITLE4=Onyx - Throw Ya Gunz
TTITLE5=Showbiz and A.G. - Fat Pockets
TTITLE6=LL Cool J - I Need A Beat
TTITLE7=Redman - Tonight's Da Night
TTITLE8=Slick Rick - The Ruler's Back
TTITLE9=Method Man - Biscuits
TTITLE10=Black Sheep - Flavor Of The Month
TTITLE11=Diamond D and The Psychotic Neurotics - Sally Got A One Track M
TTITLE11=ind
TTITLE12=Inrelligent Hoodlum - Mad Brothers Know His Name
TTITLE13=Jeru The Damaja - D. Original
TTITLE14=O.C. - My World
TTITLE15=Alicia Bridges - I Love The Night Life (Disco Round)
TTITLE16=Eric B. and Rakim - Follow The Leader
EXTD=
EXTT0=
EXTT1=
EXTT2=
EXTT3=
EXTT4=
EXTT5=
EXTT6=
EXTT7=
EXTT8=
EXTT9=
EXTT10=
EXTT11=
EXTT12=
EXTT13=
EXTT14=
EXTT15=
EXTT16=
PLAYORDER=
